PathFileType	4	(X/Y/Z)	/Users/itak/Documents/Research/Walk-IL/dataset/trc/00014_00004.trc
DataRate	CameraRate	NumFrames	NumMarkers	Units	OrigDataRate	OrigDataStartFrame	OrigNumFrames
100.000000	100.000000	4	56	mm	100.000000	408	544
Frame#	Time	LMT1			RPSI			LPSI			L3			STRN			T10			C7			CLAV			RBAK			LBAK			LSHO			LUPA			LAEL			LAOL			LWTS			LWPS			LFRA			LIFD			LHPS			RSHO			RUPA			RAEL			RAOL			RWTS			RWPS			RFRA			RIFD			RHTS			RHPS			RBHD			LFHD			RFHD			LBHD			LHIP			RHIP			RASI			LASI			LKNE			LTHI			LANK			LTIP			LTOE			LMT5			LHEE			RKNE			RANK			RTIP			RTOE			RMT1			RMT5			RHEE			LHTS			RTHI			*53			*54			*55			
		X1	Y1	Z1	X2	Y2	Z2	X3	Y3	Z3	X4	Y4	Z4	X5	Y5	Z5	X6	Y6	Z6	X7	Y7	Z7	X8	Y8	Z8	X9	Y9	Z9	X10	Y10	Z10	X11	Y11	Z11	X12	Y12	Z12	X13	Y13	Z13	X14	Y14	Z14	X15	Y15	Z15	X16	Y16	Z16	X17	Y17	Z17	X18	Y18	Z18	X19	Y19	Z19	X20	Y20	Z20	X21	Y21	Z21	X22	Y22	Z22	X23	Y23	Z23	X24	Y24	Z24	X25	Y25	Z25	X26	Y26	Z26	X27	Y27	Z27	X28	Y28	Z28	X29	Y29	Z29	X30	Y30	Z30	X31	Y31	Z31	X32	Y32	Z32	X33	Y33	Z33	X34	Y34	Z34	X35	Y35	Z35	X36	Y36	Z36	X37	Y37	Z37	X38	Y38	Z38	X39	Y39	Z39	X40	Y40	Z40	X41	Y41	Z41	X42	Y42	Z42	X43	Y43	Z43	X44	Y44	Z44	X45	Y45	Z45	X46	Y46	Z46	X47	Y47	Z47	X48	Y48	Z48	X49	Y49	Z49	X50	Y50	Z50	X51	Y51	Z51	X52	Y52	Z52	X53	Y53	Z53	X54	Y54	Z54	X55	Y55	Z55	X56	Y56	Z56	

409	4.08	-573.7666625976562	48.59718322753906	-293.5517578125	-856.2747802734375	1065.427978515625	-165.1416015625	-864.5753173828125	1064.44189453125	-328.7288818359375	-860.4331665039062	1125.392822265625	-252.2744598388672	-630.8104858398438	1316.74609375	-260.5211486816406	-878.4270629882812	1268.6533203125	-249.0287017822266	-835.7371826171875	1535.892211914062	-258.1303100585938	-674.6089477539062	1443.164184570312	-262.5993041992188	-880.9299926757812	1398.288208007812	-176.2474670410156	-856.8822021484375	1494.62158203125	-355.7590637207031	-757.494140625	1503.52783203125	-434.4198913574219	-793.8096313476562	1381.931396484375	-513.7976684570312	-806.8905029296875	1167.542236328125	-548.2158813476562	-858.8201904296875	1153.56591796875	-456.9617614746094	-732.446044921875	906.781982421875	-508.31298828125	-811.5940551757812	899.6051025390625	-547.6910400390625	-800.5657348632812	1051.194213867188	-560.36669921875	-717.3250122070312	719.9872436523438	-500.9495849609375	-783.7210083007812	808.4473876953125	-552.9033203125	-747.6654052734375	1521.005004882812	-88.42227935791016	-753.2498779296875	1446.475708007812	-16.20377731323242	-764.9348754882812	1173.780151367188	3.728123664855957	-782.2125854492188	1149.056884765625	-91.8653564453125	-609.8856201171875	937.5901489257812	-69.13683319091797	-657.9955444335938	909.4732666015625	3.860254764556885	-740.0025634765625	1098.2734375	11.97060298919678	-563.324951171875	757.7842407226562	-100.2636871337891	-558.7091674804688	833.7462158203125	-70.17801666259766	-603.2072143554688	817.8639526367188	-12.52436065673828	-769.4860229492188	1716.544555664062	-176.7989349365234	-597.4576416015625	1727.440551757812	-299.5464172363281	-596.063232421875	1724.851928710938	-201.2472534179688	-778.7227172851562	1725.191162109375	-321.0727233886719	-771.6724243164062	966.481689453125	-442.1179809570312	-748.1082153320312	949.9627685546875	-69.01229858398438	-644.2406616210938	980.0911254882812	-145.4379425048828	-655.0678100585938	1006.979370117188	-378.5038452148438	-651.677734375	532.2744140625	-383.0328674316406	-698.4396362304688	660.5233764648438	-425.6044921875	-723.1010131835938	41.95352554321289	-395.36865234375	-708.8447875976562	288.0314331054688	-406.1363525390625	-514.1287841796875	45.09215545654297	-303.902587890625	-597.6729736328125	50.87216186523438	-398.2399597167969	-798.532958984375	45.60066986083984	-348.3140869140625	-784.4332275390625	513.2869873046875	-111.76171875	-1013.140075683594	62.26382827758789	-137.1310424804688	-836.16845703125	394.3101196289062	-111.2237701416016	-785.3449096679688	46.50804138183594	-177.9190521240234	-847.3999633789062	53.37236404418945	-207.2749938964844	-865.7422485351562	41.95241928100586	-111.9009704589844	-1068.143188476562	76.29280853271484	-182.0121765136719	-717.6625366210938	812.9323120117188	-527.6470947265625	-742.9971923828125	782.8305053710938	-72.52431488037109	nan	nan	nan	nan	nan	nan	nan	nan	nan	
410	4.09	-574.32421875	49.41495513916016	-293.2612915039062	-862.4009399414062	1065.0947265625	-163.49951171875	-870.2838745117188	1064.445556640625	-327.0614318847656	-866.2904663085938	1125.268920898438	-250.3513946533203	-635.8234252929688	1315.821899414062	-258.2239074707031	-883.352783203125	1268.48486328125	-246.7252502441406	-840.0653686523438	1535.645385742188	-256.0650329589844	-679.1688842773438	1442.390258789062	-260.4122009277344	-885.5619506835938	1398.236083984375	-174.0482025146484	-861.382080078125	1494.314819335938	-353.7021789550781	-761.9235229492188	1502.7509765625	-432.3140258789062	-798.015380859375	1381.101318359375	-511.6213684082031	-810.1434326171875	1166.711547851562	-546.2633666992188	-862.2378540039062	1152.289672851562	-455.1898498535156	-731.94677734375	907.31494140625	-505.9015197753906	-810.853515625	898.7557373046875	-545.4149169921875	-802.3329467773438	1050.453857421875	-558.3433227539062	-713.4591674804688	720.9356079101562	-498.3575744628906	-781.4790649414062	808.141357421875	-550.4674072265625	-751.9223022460938	1520.669067382812	-86.32981109619141	-757.68701171875	1446.206298828125	-14.03862762451172	-770.3132934570312	1173.579345703125	6.19874095916748	-787.75244140625	1148.817504882812	-89.36304473876953	-617.5090942382812	935.6771240234375	-65.93643951416016	-665.967529296875	908.3994750976562	7.218099594116211	-745.9415893554688	1098.009033203125	14.60754013061523	-572.98388671875	755.2432861328125	-96.28508758544922	-567.4385375976562	831.3477172851562	-66.487548828125	-612.1167602539062	816.1611328125	-8.799256324768066	-773.4666748046875	1716.145141601562	-174.9084014892578	-601.6002807617188	1726.773559570312	-297.91943359375	-600.05419921875	1724.2490234375	-199.6298217773438	-782.9178466796875	1724.682373046875	-319.195556640625	-776.9115600585938	966.7152099609375	-440.6141967773438	-755.0162963867188	948.9127807617188	-67.18858337402344	-650.6663208007812	979.017822265625	-143.0966491699219	-660.6992797851562	1006.660095214844	-376.1427612304688	-655.206298828125	532.9317626953125	-382.0320434570312	-702.56982421875	660.8837890625	-424.379638671875	-723.3160400390625	42.1685791015625	-395.2292175292969	-710.8026733398438	288.4115295410156	-405.6364135742188	-514.6915283203125	46.55997848510742	-303.5464477539062	-597.9411010742188	51.64501190185547	-397.947265625	-798.7215576171875	45.33186340332031	-348.2774047851562	-792.2031860351562	512.848876953125	-110.99267578125	-1013.963317871094	59.13628768920898	-138.3367767333984	-842.6178588867188	393.6249694824219	-110.9470596313477	-785.3123779296875	46.48027801513672	-177.896484375	-847.4558715820312	52.78014373779297	-207.5248260498047	-865.9564819335938	41.88821411132812	-112.082893371582	-1069.004028320312	71.93978118896484	-183.5930480957031	-715.4778442382812	813.7822265625	-525.114501953125	-750.3697509765625	782.0247192382812	-70.83888244628906	nan	nan	nan	nan	nan	nan	nan	nan	nan	
411	4.1	-574.9175415039062	50.444091796875	-292.9872436523438	-868.5789184570312	1064.853759765625	-161.8969268798828	-876.0292358398438	1064.487426757812	-325.4453735351562	-872.1981201171875	1125.214965820312	-248.504638671875	-640.8253173828125	1314.941284179688	-255.9284973144531	-888.2618408203125	1268.40380859375	-244.4435272216797	-844.3272705078125	1535.475708007812	-254.0267333984375	-683.6914672851562	1441.665283203125	-258.2305603027344	-890.174072265625	1398.276611328125	-171.8817291259766	-865.8107299804688	1494.098754882812	-351.6717529296875	-766.2669067382812	1502.04736328125	-430.2249145507812	-802.1779174804688	1380.35009765625	-509.4542236328125	-813.412841796875	1165.963012695312	-544.2760009765625	-865.6510009765625	1151.113891601562	-453.3596496582031	-731.4774169921875	908.0001831054688	-503.4233093261719	-810.12060546875	898.0484619140625	-543.0473022460938	-804.1237182617188	1049.814697265625	-556.2599487304688	-709.5808715820312	722.1192016601562	-495.6881103515625	-779.2775268554688	808.005615234375	-547.9282836914062	-756.1419067382812	1520.3984375	-84.25780487060547	-762.105224609375	1446.00390625	-11.89119911193848	-775.6266479492188	1173.457275390625	8.689688682556152	-793.24658203125	1148.642700195312	-86.83397674560547	-625.1503295898438	933.8214111328125	-62.69223022460938	-673.9073486328125	907.4313354492188	10.64591979980469	-751.8248901367188	1097.8369140625	17.27643013000488	-582.7053833007812	752.7760620117188	-92.22171783447266	-576.1996459960938	829.0238647460938	-62.73867416381836	-621.0267333984375	814.5615844726562	-4.991059303283691	-777.3099975585938	1715.81982421875	-173.0323333740234	-605.5952758789062	1726.087524414062	-296.3058776855469	-603.905517578125	1723.62841796875	-198.0213165283203	-786.974365234375	1724.246826171875	-317.3309326171875	-782.2111206054688	966.9454956054688	-439.1272277832031	-761.89501953125	947.9995727539062	-65.42859649658203	-657.127197265625	978.060791015625	-140.7779235839844	-666.376953125	1006.361511230469	-373.8072509765625	-658.9027709960938	533.5701904296875	-381.1483764648438	-706.8473510742188	661.2385864257812	-423.1959838867188	-723.5640258789062	42.40734100341797	-395.0841674804688	-712.9166259765625	288.8094482421875	-405.1649780273438	-515.3060302734375	48.28252410888672	-303.2080078125	-598.2537231445312	52.5431022644043	-397.6628723144531	-798.9390869140625	45.00734710693359	-348.242431640625	-799.4310913085938	512.4491577148438	-110.3315734863281	-1014.670776367188	56.42275619506836	-139.5430908203125	-848.5875854492188	392.9896850585938	-110.78564453125	-785.2509765625	46.43224716186523	-177.8496551513672	-847.4730834960938	52.27713012695312	-207.7797088623047	-866.1168212890625	41.95630645751953	-112.2918853759766	-1069.723022460938	68.00881958007812	-185.1928405761719	-713.3273315429688	814.8126220703125	-522.5125122070312	-757.531494140625	781.3062133789062	-69.21035766601562	nan	nan	nan	nan	nan	nan	nan	nan	nan	
412	4.11	-575.5430297851562	51.70139312744141	-292.7391357421875	-874.7759399414062	1064.708618164062	-160.3415679931641	-881.7922973632812	1064.57666015625	-323.8846740722656	-878.130859375	1125.234252929688	-246.7397308349609	-645.8055419921875	1314.123413085938	-253.6443023681641	-893.14990234375	1268.413940429688	-242.1973419189453	-848.53076171875	1535.388671875	-252.02392578125	-688.17724609375	1441.005859375	-256.0621643066406	-894.7667236328125	1398.408935546875	-169.7610168457031	-870.1671752929688	1493.981079101562	-349.67822265625	-770.52294921875	1501.4345703125	-428.1589050292969	-806.2918090820312	1379.696899414062	-507.3070983886719	-816.703125	1165.313842773438	-542.2631225585938	-869.0618286132812	1150.060546875	-451.4797668457031	-731.0646362304688	908.8496704101562	-500.8836669921875	-809.4267578125	897.5005493164062	-540.5892333984375	-805.9465942382812	1049.292358398438	-554.1224975585938	-705.72216796875	723.5504760742188	-492.9378662109375	-777.1427612304688	808.048583984375	-545.2835693359375	-760.3345336914062	1520.201293945312	-82.21291351318359	-766.5147705078125	1445.876586914062	-9.768795967102051	-780.8840942382812	1173.423217773438	11.18839454650879	-798.6954956054688	1148.54150390625	-84.29318237304688	-632.7950439453125	932.0467529296875	-59.3944206237793	-681.8102416992188	906.5817260742188	14.14070510864258	-757.661376953125	1097.766235351562	19.96510314941406	-592.4681396484375	750.404052734375	-88.06974792480469	-584.9823608398438	826.7907104492188	-58.92755508422852	-629.9337158203125	813.0794067382812	-1.098716735839844	-781.0178833007812	1715.581665039062	-171.1752471923828	-609.4488525390625	1725.390014648438	-294.7135925292969	-607.6221313476562	1722.998901367188	-196.4297637939453	-790.895263671875	1723.89599609375	-315.48193359375	-787.5662231445312	967.1826171875	-437.6646118164062	-768.7155151367188	947.2372436523438	-63.73292541503906	-663.58740234375	977.2301025390625	-138.5082855224609	-672.0885009765625	1006.0947265625	-371.5213317871094	-662.7808837890625	534.1930541992188	-380.3775634765625	-711.2838745117188	661.5926513671875	-422.0667419433594	-723.8464965820312	42.67154312133789	-394.935302734375	-715.1943359375	289.2276611328125	-404.7275695800781	-515.9678955078125	50.26837539672852	-302.9008178710938	-598.6144409179688	53.58597564697266	-397.3962707519531	-799.1868896484375	44.62413787841797	-348.2093200683594	-806.1669921875	512.10693359375	-109.7486343383789	-1015.286437988281	54.08949661254883	-140.6721801757812	-854.116943359375	392.4230041503906	-110.6934585571289	-785.197998046875	46.37661743164062	-177.7929992675781	-847.4922485351562	51.84774017333984	-208.03271484375	-866.2427978515625	42.10659790039062	-112.5126342773438	-1070.337524414062	64.49362182617188	-186.7103576660156	-711.2437744140625	816.0305786132812	-519.840087890625	-764.47265625	780.6891479492188	-67.64202880859375	nan	nan	nan	nan	nan	nan	nan	nan	nan	
